<svg width="24" height="24" viewBox="0 0 24 24" fill="none" xmlns="http://www.w3.org/2000/svg">
<g clip-path="url(#clip0_1_854)">
<path d="M11.6609 3.41938C11.6926 3.3566 11.741 3.30383 11.8009 3.26696C11.8608 3.23009 11.9297 3.21057 12 3.21057C12.0703 3.21057 12.1392 3.23009 12.1991 3.26696C12.259 3.30383 12.3074 3.3566 12.3391 3.41938L13.1273 5.00844C13.1546 5.06291 13.1946 5.10998 13.244 5.14562C13.2934 5.18127 13.3507 5.20443 13.4109 5.21313L15.1797 5.4686C15.2487 5.4783 15.3138 5.50705 15.3675 5.55162C15.4212 5.59619 15.4613 5.65482 15.4836 5.72094C15.5054 5.78681 15.5081 5.85751 15.4913 5.92485C15.4746 5.99219 15.4391 6.05341 15.3891 6.10141L14.1094 7.34673C14.0662 7.38842 14.0337 7.44002 14.015 7.49706C13.9962 7.55409 13.9916 7.61485 14.0016 7.67407L14.3047 9.42954C14.3162 9.49822 14.308 9.56873 14.2812 9.63298C14.2544 9.69724 14.21 9.75264 14.1531 9.79282C14.0959 9.8337 14.0284 9.85791 13.9582 9.86273C13.888 9.86756 13.8178 9.85282 13.7555 9.82016L12.1766 8.99673C12.1222 8.96786 12.0616 8.95277 12 8.95277C11.9384 8.95277 11.8778 8.96786 11.8234 8.99673L10.2484 9.82016C10.1861 9.85282 10.116 9.86756 10.0457 9.86273C9.97555 9.85791 9.90806 9.8337 9.85079 9.79282C9.79393 9.75264 9.74955 9.69724 9.72274 9.63298C9.69594 9.56873 9.68779 9.49822 9.69922 9.42954L10.0024 7.67407C10.0123 7.61485 10.0077 7.55409 9.98894 7.49706C9.97015 7.44002 9.93776 7.38842 9.89454 7.34673L8.61094 6.10141C8.56085 6.05341 8.52539 5.99219 8.50865 5.92485C8.49193 5.85751 8.49462 5.78681 8.51641 5.72094C8.53865 5.65482 8.57886 5.59619 8.63254 5.55162C8.68621 5.50705 8.75123 5.4783 8.82032 5.4686L10.5891 5.21313C10.6494 5.20443 10.7066 5.18127 10.756 5.14562C10.8054 5.10998 10.8454 5.06291 10.8727 5.00844L11.6609 3.41938Z" stroke="#2B3674" stroke-width="1.25" stroke-linecap="round" stroke-linejoin="round"/>
<path d="M7.56405 10.5157L6.88984 10.1642C6.8352 10.1357 6.7745 10.1208 6.71288 10.1208C6.65127 10.1208 6.59057 10.1357 6.53593 10.1642L4.96171 10.9845C4.89927 11.017 4.82905 11.0318 4.75877 11.0271C4.68848 11.0224 4.62085 10.9985 4.56327 10.9579C4.50642 10.9176 4.46212 10.862 4.43544 10.7976C4.40877 10.7332 4.40081 10.6626 4.41249 10.5938L4.71484 8.83917C4.72505 8.78002 4.72064 8.71927 4.70198 8.66221C4.68333 8.60515 4.65099 8.55353 4.6078 8.51183L3.32343 7.26886C3.27363 7.22067 3.23842 7.15941 3.22184 7.09211C3.20526 7.02481 3.20797 6.95421 3.22968 6.88839C3.25192 6.82227 3.29213 6.76363 3.3458 6.71907C3.39948 6.6745 3.4645 6.64575 3.53359 6.63605L5.30155 6.38058C5.36198 6.372 5.41941 6.34889 5.46895 6.31324C5.51847 6.2776 5.55862 6.23046 5.58593 6.17589L6.37499 4.58683C6.40652 4.52397 6.45495 4.47115 6.51485 4.43431C6.57475 4.39746 6.64373 4.37804 6.71405 4.37824" stroke="#2B3674" stroke-width="1.25" stroke-linecap="round" stroke-linejoin="round"/>
<path d="M16.4359 10.5157L17.1102 10.1634C17.1648 10.1349 17.2255 10.12 17.2871 10.12C17.3487 10.12 17.4095 10.1349 17.4641 10.1634L19.0383 10.9845C19.1007 11.017 19.1709 11.0318 19.2412 11.0271C19.3115 11.0224 19.3791 10.9985 19.4367 10.9579C19.4936 10.9176 19.5379 10.862 19.5645 10.7976C19.5912 10.7332 19.5992 10.6626 19.5875 10.5938L19.2852 8.83917C19.2749 8.78002 19.2794 8.71927 19.298 8.66221C19.3166 8.60515 19.349 8.55353 19.3922 8.51183L20.6766 7.26574C20.7264 7.21754 20.7616 7.15628 20.7781 7.08899C20.7948 7.0217 20.792 6.95109 20.7703 6.88527C20.748 6.81914 20.7079 6.76051 20.6542 6.71595C20.6005 6.67138 20.5355 6.64263 20.4664 6.63292L18.6984 6.37745C18.638 6.36888 18.5806 6.34577 18.5311 6.31012C18.4816 6.27447 18.4414 6.22734 18.4141 6.17277L17.625 4.58683C17.5935 4.52397 17.5451 4.47115 17.4852 4.43431C17.4252 4.39746 17.3562 4.37804 17.2859 4.37824" stroke="#2B3674" stroke-width="1.25" stroke-linecap="round" stroke-linejoin="round"/>
<path d="M8.77891 14.6928V15.4741C8.80906 16.3734 8.57551 17.262 8.10703 18.0303" stroke="#2B3674" stroke-width="1.25" stroke-linecap="round" stroke-linejoin="round"/>
<path d="M15.2219 14.6928V15.4741C15.1916 16.3734 15.4248 17.2619 15.893 18.0303" stroke="#2B3674" stroke-width="1.25" stroke-linecap="round" stroke-linejoin="round"/>
<path d="M8.7875 14.8634C9.39775 14.8592 10.0001 14.7247 10.5541 14.4688C11.1081 14.2129 11.6011 13.8416 12 13.3798C12.3988 13.8418 12.8917 14.2132 13.4458 14.4692C13.9998 14.7252 14.6022 14.8598 15.2125 14.8641" stroke="#2B3674" stroke-width="1.25" stroke-linecap="round" stroke-linejoin="round"/>
<path d="M8.77734 14.6062C8.77734 15.4609 9.11687 16.2806 9.72123 16.885C10.3256 17.4893 11.1453 17.8288 12 17.8288C12.8547 17.8288 13.6744 17.4893 14.2788 16.885C14.8831 16.2806 15.2227 15.4609 15.2227 14.6062C15.2227 13.7515 14.8831 12.9318 14.2788 12.3274C13.6744 11.723 12.8547 11.3835 12 11.3835C11.1453 11.3835 10.3256 11.723 9.72123 12.3274C9.11687 12.9318 8.77734 13.7515 8.77734 14.6062Z" stroke="#2B3674" stroke-width="1.25" stroke-linecap="round" stroke-linejoin="round"/>
<path d="M15.943 20.7892C15.3998 20.1727 14.7203 19.6912 13.9586 19.383L12 20.7587L10.0414 19.3861C9.28381 19.6919 8.6073 20.1689 8.06485 20.7798" stroke="#2B3674" stroke-width="1.25" stroke-linecap="round" stroke-linejoin="round"/>
</g>
<defs>
<clipPath id="clip0_1_854">
<rect width="20" height="20" fill="white" transform="translate(2 2)"/>
</clipPath>
</defs>
</svg>
