<svg width="24" height="24" viewBox="0 0 24 24" fill="none" xmlns="http://www.w3.org/2000/svg">
<g clip-path="url(#clip0_1_969)">
<path d="M5.16667 4.5H9.98733C9.98733 4.5 10.654 4.5 10.654 5.16667V9.98733C10.654 9.98733 10.654 10.654 9.98733 10.654H5.16667C5.16667 10.654 4.5 10.654 4.5 9.98733V5.16667C4.5 5.16667 4.5 4.5 5.16667 4.5Z" stroke="#2B3674" stroke-width="1.25" stroke-linecap="round" stroke-linejoin="round"/>
<path d="M14.0127 4.5H18.8333C18.8333 4.5 19.5 4.5 19.5 5.16667V9.98733C19.5 9.98733 19.5 10.654 18.8333 10.654H14.0127C14.0127 10.654 13.346 10.654 13.346 9.98733V5.16667C13.346 5.16667 13.346 4.5 14.0127 4.5Z" stroke="#2B3674" stroke-width="1.25" stroke-linecap="round" stroke-linejoin="round"/>
<path d="M14.0127 13.3333H18.8333C18.8333 13.3333 19.5 13.3333 19.5 14V18.8207C19.5 18.8207 19.5 19.4873 18.8333 19.4873H14.0127C14.0127 19.4873 13.346 19.4873 13.346 18.8207V14C13.346 14 13.346 13.3333 14.0127 13.3333Z" stroke="#2B3674" stroke-width="1.25" stroke-linecap="round" stroke-linejoin="round"/>
<path d="M5.16667 13.346H9.98733C9.98733 13.346 10.654 13.346 10.654 14.0127V18.8334C10.654 18.8334 10.654 19.5 9.98733 19.5H5.16667C5.16667 19.5 4.5 19.5 4.5 18.8334V14.0127C4.5 14.0127 4.5 13.346 5.16667 13.346Z" stroke="#2B3674" stroke-width="1.25" stroke-linecap="round" stroke-linejoin="round"/>
</g>
<defs>
<clipPath id="clip0_1_969">
<rect width="16" height="16" fill="white" transform="translate(4 4)"/>
</clipPath>
</defs>
</svg>
