<svg width="24" height="24" viewBox="0 0 24 24" fill="none" xmlns="http://www.w3.org/2000/svg">
<path d="M10.2359 9.74685C10.2359 10.2147 10.4217 10.6634 10.7526 10.9942C11.0834 11.3251 11.5321 11.5109 11.9999 11.5109C12.4678 11.5109 12.9165 11.3251 13.2473 10.9942C13.5781 10.6634 13.764 10.2147 13.764 9.74685C13.764 9.27899 13.5781 8.8303 13.2473 8.49947C12.9165 8.16865 12.4678 7.98279 11.9999 7.98279C11.5321 7.98279 11.0834 8.16865 10.7526 8.49947C10.4217 8.8303 10.2359 9.27899 10.2359 9.74685Z" stroke="#2B3674" stroke-width="1.25" stroke-linecap="round" stroke-linejoin="round"/>
<path d="M8.85077 15.6258C8.85077 14.7905 9.18257 13.9895 9.77316 13.3989C10.3638 12.8084 11.1648 12.4766 12 12.4766C12.8352 12.4766 13.6362 12.8084 14.2268 13.3989C14.8174 13.9895 15.1492 14.7905 15.1492 15.6258H8.85077Z" stroke="#2B3674" stroke-width="1.25" stroke-linecap="round" stroke-linejoin="round"/>
<path d="M4.56411 12C4.56411 13.9684 5.34606 15.8562 6.73792 17.248C8.1298 18.6399 10.0176 19.4219 11.986 19.4219C13.9544 19.4219 15.8422 18.6399 17.2341 17.248C18.6259 15.8562 19.4079 13.9684 19.4079 12C19.4079 10.0316 18.6259 8.14381 17.2341 6.75195C15.8422 5.36007 13.9544 4.57812 11.986 4.57812C10.0176 4.57812 8.1298 5.36007 6.73792 6.75195C5.34606 8.14381 4.56411 10.0316 4.56411 12Z" stroke="#2B3674" stroke-width="1.25" stroke-linecap="round" stroke-linejoin="round"/>
</svg>
